<svg xmlns="http://www.w3.org/2000/svg" xmlns:xlink="http://www.w3.org/1999/xlink" xmlns:lucid="lucid" width="1350.08" height="1068.54"><g transform="translate(-80 -120)" lucid:page-tab-id="0_0"><path d="M100 146a6 6 0 0 1 6-6h188a6 6 0 0 1 6 6v68a6 6 0 0 1-6 6H106a6 6 0 0 1-6-6z" stroke="#1071e5" fill="#fff"/><use xlink:href="#a" transform="matrix(1,0,0,1,112,152) translate(28.154320987654323 31.77777777777778)"/><use xlink:href="#b" transform="matrix(1,0,0,1,112,152) translate(112.04320987654322 31.77777777777778)"/><path d="M300.96 180H414a6 6 0 0 1 6 6v58a6 6 0 0 0 6 6h97.15" stroke="#1071e5" fill="none"/><path d="M300.98 180.5h-.52v-1h.52z" stroke="#1071e5" stroke-width=".05" fill="#1071e5"/><path d="M537.92 250l-14.27 4.63v-9.26z" stroke="#1071e5" fill="#1071e5"/><path d="M540 216a6 6 0 0 1 6-6h148a6 6 0 0 1 6 6v68a6 6 0 0 1-6 6H546a6 6 0 0 1-6-6z" stroke="#1071e5" fill="#fff"/><use xlink:href="#c" transform="matrix(1,0,0,1,552,222) translate(28.493827160493822 31.77777777777778)"/><path d="M540 497.42a6 6 0 0 1 6-6h148a6 6 0 0 1 6 6v68a6 6 0 0 1-6 6H546a6 6 0 0 1-6-6z" stroke="#1071e5" fill="#fff"/><use xlink:href="#d" transform="matrix(1,0,0,1,552,503.4173228346456) translate(31.055555555555557 31.77777777777778)"/><path d="M540 778.84a6 6 0 0 1 6-6h148a6 6 0 0 1 6 6v68a6 6 0 0 1-6 6H546a6 6 0 0 1-6-6z" stroke="#1071e5" fill="#fff"/><use xlink:href="#e" transform="matrix(1,0,0,1,552,784.8346456692911) translate(44.635802469135804 31.77777777777778)"/><path d="M300.96 180H414a6 6 0 0 1 6 6v339.42a6 6 0 0 0 6 6h97.15" stroke="#1071e5" fill="none"/><path d="M300.98 180.5h-.52v-1h.52z" stroke="#1071e5" stroke-width=".05" fill="#1071e5"/><path d="M537.92 531.42l-14.27 4.63v-9.27z" stroke="#1071e5" fill="#1071e5"/><path d="M300.96 180H414a6 6 0 0 1 6 6v620.84a6 6 0 0 0 6 6h97.15" stroke="#1071e5" fill="none"/><path d="M300.98 180.5h-.52v-1h.52z" stroke="#1071e5" stroke-width=".05" fill="#1071e5"/><path d="M537.92 812.84l-14.27 4.63v-9.27z" stroke="#1071e5" fill="#1071e5"/><path d="M840 186a6 6 0 0 1 6-6h308a6 6 0 0 1 6 6v48a6 6 0 0 1-6 6H846a6 6 0 0 1-6-6z" stroke="#54c45e" stroke-width="2" fill="#54c45e" fill-opacity=".2"/><use xlink:href="#f" transform="matrix(1,0,0,1,852,192) translate(0 22.75)"/><path d="M1069.92 196a6 6 0 0 1 6-6h68a6 6 0 0 1 6 6v28a6 6 0 0 1-6 6h-68a6 6 0 0 1-6-6z" stroke="#54c45e" stroke-width="2" fill="#54c45e"/><use xlink:href="#g" transform="matrix(1,0,0,1,1081.9212598425197,202) translate(3.827160493827165 14.222222222222221)"/><path d="M997 196a6 6 0 0 1 6-6h48a6 6 0 0 1 6 6v28a6 6 0 0 1-6 6h-48a6 6 0 0 1-6-6z" stroke="#1071e5" stroke-width="2" fill="#1071e5"/><use xlink:href="#h" transform="matrix(1,0,0,1,1009.007874015748,202) translate(-0.24691358024691112 14.222222222222221)"/><path d="M840 266a6 6 0 0 1 6-6h388a6 6 0 0 1 6 6v48a6 6 0 0 1-6 6H846a6 6 0 0 1-6-6z" stroke="#54c45e" stroke-width="2" fill="#54c45e" fill-opacity=".2"/><use xlink:href="#i" transform="matrix(1,0,0,1,851.9999999999999,272) translate(0 22.75)"/><path d="M1047.52 276a6 6 0 0 1 6-6h54.67a6 6 0 0 1 6 6v28a6 6 0 0 1-6 6h-54.68a6 6 0 0 1-6-6z" stroke="#1071e5" stroke-width="2" fill="#1071e5"/><use xlink:href="#h" transform="matrix(1,0,0,1,1059.5240594925635,282) translate(3.253086419753089 14.222222222222221)"/><path d="M1128.9 276a6 6 0 0 1 6-6h88.08a6 6 0 0 1 6 6v28a6 6 0 0 1-6 6h-88.1a6 6 0 0 1-6-6z" stroke="#e81313" stroke-width="2" fill="#e81313"/><use xlink:href="#j" transform="matrix(1,0,0,1,1140.888888888889,282) translate(3.981481481481488 14.222222222222221)"/><path d="M700.96 250h62.8a6 6 0 0 0 6-6v-28a6 6 0 0 1 6-6h46.9" stroke="#008a0e" fill="none"/><path d="M700.98 250.5h-.52v-1h.52z" stroke="#008a0e" stroke-width=".05" fill="#008a0e"/><path d="M837.42 210l-14.27 4.63v-9.26z" stroke="#008a0e" fill="#008a0e"/><path d="M700.96 250h62.8a6 6 0 0 1 6 6v28a6 6 0 0 0 6 6h46.9" stroke="#008a0e" fill="none"/><path d="M700.98 250.5h-.52v-1h.52z" stroke="#008a0e" stroke-width=".05" fill="#008a0e"/><path d="M837.42 290l-14.27 4.63v-9.26z" stroke="#008a0e" fill="#008a0e"/><path d="M840 467.42a6 6 0 0 1 6-6h558.08a6 6 0 0 1 6 6v48a6 6 0 0 1-6 6H846a6 6 0 0 1-6-6z" stroke="#54c45e" stroke-width="2" fill="#54c45e" fill-opacity=".2"/><use xlink:href="#k" transform="matrix(1,0,0,1,852.0000000000002,473.4173228346456) translate(0 22.75)"/><path d="M1207.57 477.42a6 6 0 0 1 6-6h68a6 6 0 0 1 6 6v28a6 6 0 0 1-6 6h-68a6 6 0 0 1-6-6z" stroke="#54c45e" stroke-width="2" fill="#54c45e"/><use xlink:href="#g" transform="matrix(1,0,0,1,1219.572580645161,483.4173228346456) translate(3.827160493827165 14.222222222222221)"/><path d="M1134.66 477.42a6 6 0 0 1 6-6h48a6 6 0 0 1 6 6v28a6 6 0 0 1-6 6h-48a6 6 0 0 1-6-6z" stroke="#1071e5" stroke-width="2" fill="#1071e5"/><use xlink:href="#h" transform="matrix(1,0,0,1,1146.6591948183896,483.4173228346456) translate(-0.24691358024691112 14.222222222222221)"/><path d="M1300 477.42a6 6 0 0 1 6-6h85.75a6 6 0 0 1 6 6v28a6 6 0 0 1-6 6H1306a6 6 0 0 1-6-6z" stroke="#e81313" stroke-width="2" fill="#e81313"/><use xlink:href="#j" transform="matrix(1,0,0,1,1312,483.4173228346456) translate(2.481481481481488 14.222222222222221)"/><path d="M840 556a6 6 0 0 1 6-6h491.94a6 6 0 0 1 6 6v48a6 6 0 0 1-6 6H846a6 6 0 0 1-6-6z" stroke="#54c45e" stroke-width="2" fill="#54c45e" fill-opacity=".2"/><use xlink:href="#l" transform="matrix(1,0,0,1,852.0000000000002,562) translate(0 22.75)"/><path d="M1142.84 566a6 6 0 0 1 6-6h68a6 6 0 0 1 6 6v28a6 6 0 0 1-6 6h-68a6 6 0 0 1-6-6z" stroke="#54c45e" stroke-width="2" fill="#54c45e"/><use xlink:href="#g" transform="matrix(1,0,0,1,1154.8346456692911,572) translate(3.827160493827165 14.222222222222221)"/><path d="M1069.92 566a6 6 0 0 1 6-6h48a6 6 0 0 1 6 6v28a6 6 0 0 1-6 6h-48a6 6 0 0 1-6-6z" stroke="#1071e5" stroke-width="2" fill="#1071e5"/><use xlink:href="#h" transform="matrix(1,0,0,1,1081.9212598425197,572) translate(-0.24691358024691112 14.222222222222221)"/><path d="M1235.26 566a6 6 0 0 1 6-6H1327a6 6 0 0 1 6 6v28a6 6 0 0 1-6 6h-85.74a6 6 0 0 1-6-6z" stroke="#e81313" stroke-width="2" fill="#e81313"/><use xlink:href="#j" transform="matrix(1,0,0,1,1247.2620650241302,572) translate(2.481481481481488 14.222222222222221)"/><path d="M700.96 531.42h62.8a6 6 0 0 0 6-6v-28a6 6 0 0 1 6-6h46.9" stroke="#008a0e" fill="none"/><path d="M700.98 531.92h-.52v-1h.52z" stroke="#008a0e" stroke-width=".05" fill="#008a0e"/><path d="M837.42 491.42l-14.27 4.63v-9.27z" stroke="#008a0e" fill="#008a0e"/><path d="M700.96 531.42h62.8a6 6 0 0 1 6 6V574a6 6 0 0 0 6 6h46.9" stroke="#008a0e" fill="none"/><path d="M700.98 531.92h-.52v-1h.52z" stroke="#008a0e" stroke-width=".05" fill="#008a0e"/><path d="M837.42 580l-14.27 4.63v-9.26z" stroke="#008a0e" fill="#008a0e"/><path d="M840 700.25a6 6 0 0 1 6-6h558.08a6 6 0 0 1 6 6v48a6 6 0 0 1-6 6H846a6 6 0 0 1-6-6z" stroke="#54c45e" stroke-width="2" fill="#54c45e" fill-opacity=".2"/><use xlink:href="#m" transform="matrix(1,0,0,1,852.0000000000007,706.2519685039367) translate(0 22.75)"/><path d="M1207.57 710.25a6 6 0 0 1 6-6h68a6 6 0 0 1 6 6v28a6 6 0 0 1-6 6h-68a6 6 0 0 1-6-6z" stroke="#54c45e" stroke-width="2" fill="#54c45e"/><use xlink:href="#g" transform="matrix(1,0,0,1,1219.5725806451615,716.2519685039367) translate(3.827160493827165 14.222222222222221)"/><path d="M1134.66 710.25a6 6 0 0 1 6-6h48a6 6 0 0 1 6 6v28a6 6 0 0 1-6 6h-48a6 6 0 0 1-6-6z" stroke="#1071e5" stroke-width="2" fill="#1071e5"/><use xlink:href="#h" transform="matrix(1,0,0,1,1146.65919481839,716.2519685039367) translate(-0.24691358024691112 14.222222222222221)"/><path d="M1300 710.25a6 6 0 0 1 6-6h85.75a6 6 0 0 1 6 6v28a6 6 0 0 1-6 6H1306a6 6 0 0 1-6-6z" stroke="#e81313" stroke-width="2" fill="#e81313"/><use xlink:href="#j" transform="matrix(1,0,0,1,1312.0000000000005,716.2519685039367) translate(2.481481481481488 14.222222222222221)"/><path d="M840 788.84a6 6 0 0 1 6-6h479.34a6 6 0 0 1 6 6v48a6 6 0 0 1-6 6H846a6 6 0 0 1-6-6z" stroke="#54c45e" stroke-width="2" fill="#54c45e" fill-opacity=".2"/><use xlink:href="#n" transform="matrix(1,0,0,1,852.0000000000005,794.8346456692911) translate(0 22.75)"/><path d="M1129.92 798.84a6 6 0 0 1 6-6h68a6 6 0 0 1 6 6v28a6 6 0 0 1-6 6h-68a6 6 0 0 1-6-6z" stroke="#54c45e" stroke-width="2" fill="#54c45e"/><use xlink:href="#g" transform="matrix(1,0,0,1,1141.9212598425197,804.8346456692911) translate(3.827160493827165 14.222222222222221)"/><path d="M1057 798.84a6 6 0 0 1 6-6h48a6 6 0 0 1 6 6v28a6 6 0 0 1-6 6h-48a6 6 0 0 1-6-6z" stroke="#1071e5" stroke-width="2" fill="#1071e5"/><use xlink:href="#h" transform="matrix(1,0,0,1,1069.0078740157483,804.8346456692911) translate(-0.24691358024691112 14.222222222222221)"/><path d="M1222.35 798.84a6 6 0 0 1 6-6h85.75a6 6 0 0 1 6 6v28a6 6 0 0 1-6 6h-85.75a6 6 0 0 1-6-6z" stroke="#e81313" stroke-width="2" fill="#e81313"/><use xlink:href="#j" transform="matrix(1,0,0,1,1234.3486791973592,804.8346456692911) translate(2.481481481481488 14.222222222222221)"/><path d="M840 877.42a6 6 0 0 1 6-6h419.5a6 6 0 0 1 6 6v48a6 6 0 0 1-6 6H846a6 6 0 0 1-6-6z" stroke="#54c45e" stroke-width="2" fill="#54c45e" fill-opacity=".2"/><use xlink:href="#o" transform="matrix(1,0,0,1,852,883.4173228346456) translate(0 22.75)"/><path d="M1200 887.42a6 6 0 0 1 6-6h48a6 6 0 0 1 6 6v28a6 6 0 0 1-6 6h-48a6 6 0 0 1-6-6z" stroke="#1071e5" stroke-width="2" fill="#1071e5"/><use xlink:href="#h" transform="matrix(1,0,0,1,1212.0000000000005,893.4173228346456) translate(-0.24691358024691112 14.222222222222221)"/><path d="M700.96 812.84h62.8a6 6 0 0 0 6-6v-76.6a6 6 0 0 1 6-6h46.9" stroke="#008a0e" fill="none"/><path d="M700.98 813.34h-.52v-1h.52z" stroke="#008a0e" stroke-width=".05" fill="#008a0e"/><path d="M837.42 724.25l-14.27 4.64v-9.28z" stroke="#008a0e" fill="#008a0e"/><path d="M700.96 812.84h121.7" stroke="#008a0e" fill="none"/><path d="M700.98 813.34h-.52v-1h.52z" stroke="#008a0e" stroke-width=".05" fill="#008a0e"/><path d="M837.42 812.84l-14.27 4.63v-9.27z" stroke="#008a0e" fill="#008a0e"/><path d="M700.96 812.84h62.8a6 6 0 0 1 6 6v76.58a6 6 0 0 0 6 6h46.9" stroke="#008a0e" fill="none"/><path d="M700.98 813.34h-.52v-1h.52z" stroke="#008a0e" stroke-width=".05" fill="#008a0e"/><path d="M837.42 901.42l-14.27 4.63v-9.27z" stroke="#008a0e" fill="#008a0e"/><path d="M540 1060.25a6 6 0 0 1 6-6h148a6 6 0 0 1 6 6v68a6 6 0 0 1-6 6H546a6 6 0 0 1-6-6z" stroke="#1071e5" fill="#fff"/><use xlink:href="#p" transform="matrix(1,0,0,1,551.9999999999995,1066.2519685039367) translate(39.04938271604939 31.77777777777778)"/><path d="M841.65 1025.96a6 6 0 0 1 6-6h410.05a6 6 0 0 1 6 6v48a6 6 0 0 1-6 6H847.65a6 6 0 0 1-6-6z" stroke="#54c45e" stroke-width="2" fill="#54c45e" fill-opacity=".2"/><use xlink:href="#q" transform="matrix(1,0,0,1,853.6535433070867,1031.9606299212596) translate(0 22.75)"/><path d="M1082.97 1035.96a6 6 0 0 1 6-6h48a6 6 0 0 1 6 6v28a6 6 0 0 1-6 6h-48a6 6 0 0 1-6-6z" stroke="#1071e5" stroke-width="2" fill="#1071e5"/><use xlink:href="#r" transform="matrix(1,0,0,1,1094.9721869443742,1041.9606299212596) translate(-0.24691358024691112 14.222222222222221)"/><path d="M1156.38 1035.96a6 6 0 0 1 6-6h85.75a6 6 0 0 1 6 6v28a6 6 0 0 1-6 6h-85.75a6 6 0 0 1-6-6z" stroke="#e81313" stroke-width="2" fill="#e81313"/><use xlink:href="#s" transform="matrix(1,0,0,1,1168.3803022606046,1041.9606299212596) translate(2.481481481481488 14.222222222222221)"/><path d="M700.96 1094.25h63.62a6 6 0 0 0 6-6v-32.3a6 6 0 0 1 6-6h47.73" stroke="#008a0e" fill="none"/><path d="M700.98 1094.75h-.52v-1h.52z" stroke="#008a0e" stroke-width=".05" fill="#008a0e"/><path d="M839.07 1049.96l-14.26 4.64v-9.27z" stroke="#008a0e" fill="#008a0e"/><path d="M300.96 180H414a6 6 0 0 1 6 6v902.25a6 6 0 0 0 6 6h97.15" stroke="#1071e5" fill="none"/><path d="M300.98 180.5h-.52v-1h.52z" stroke="#1071e5" stroke-width=".05" fill="#1071e5"/><path d="M537.92 1094.25l-14.27 4.64v-9.28z" stroke="#1071e5" fill="#1071e5"/><path d="M841.65 1114.54a6 6 0 0 1 6-6h391.15a6 6 0 0 1 6 6v48a6 6 0 0 1-6 6H847.65a6 6 0 0 1-6-6z" stroke="#54c45e" stroke-width="2" fill="#54c45e" fill-opacity=".2"/><use xlink:href="#t" transform="matrix(1,0,0,1,853.6535433070867,1120.5433070866138) translate(0 22.75)"/><path d="M1082.97 1124.54a6 6 0 0 1 6-6h68a6 6 0 0 1 6 6v28a6 6 0 0 1-6 6h-68a6 6 0 0 1-6-6z" stroke="#54c45e" stroke-width="2" fill="#54c45e"/><use xlink:href="#u" transform="matrix(1,0,0,1,1094.9721869443742,1130.5433070866138) translate(3.827160493827165 14.222222222222221)"/><path d="M1175.25 1124.54a6 6 0 0 1 6-6h48a6 6 0 0 1 6 6v28a6 6 0 0 1-6 6h-48a6 6 0 0 1-6-6z" stroke="#f5c400" stroke-width="2" fill="#f5c400"/><use xlink:href="#v" transform="matrix(1,0,0,1,1187.248539497079,1130.5433070866138) translate(0.7716049382716079 14.222222222222221)"/><path d="M700.96 1094.25h63.62a6 6 0 0 1 6 6v32.3a6 6 0 0 0 6 6h47.73" stroke="#008a0e" fill="none"/><path d="M700.98 1094.75h-.52v-1h.52z" stroke="#008a0e" stroke-width=".05" fill="#008a0e"/><path d="M839.07 1138.54l-14.26 4.64v-9.27z" stroke="#008a0e" fill="#008a0e"/><defs><path d="M185-189c-5-48-123-54-124 2 14 75 158 14 163 119 3 78-121 87-175 55-17-10-28-26-33-46l33-7c5 56 141 63 141-1 0-78-155-14-162-118-5-82 145-84 179-34 5 7 8 16 11 25" id="w"/><path d="M59-47c-2 24 18 29 38 22v24C64 9 27 4 27-40v-127H5v-23h24l9-43h21v43h35v23H59v120" id="x"/><path d="M100-194c62-1 85 37 85 99 1 63-27 99-86 99S16-35 15-95c0-66 28-99 85-99zM99-20c44 1 53-31 53-75 0-43-8-75-51-75s-53 32-53 75 10 74 51 75" id="y"/><path d="M114-163C36-179 61-72 57 0H25l-1-190h30c1 12-1 29 2 39 6-27 23-49 58-41v29" id="z"/><path d="M141-36C126-15 110 5 73 4 37 3 15-17 15-53c-1-64 63-63 125-63 3-35-9-54-41-54-24 1-41 7-42 31l-33-3c5-37 33-52 76-52 45 0 72 20 72 64v82c-1 20 7 32 28 27v20c-31 9-61-2-59-35zM48-53c0 20 12 33 32 33 41-3 63-29 60-74-43 2-92-5-92 41" id="A"/><path d="M177-190C167-65 218 103 67 71c-23-6-38-20-44-43l32-5c15 47 100 32 89-28v-30C133-14 115 1 83 1 29 1 15-40 15-95c0-56 16-97 71-98 29-1 48 16 59 35 1-10 0-23 2-32h30zM94-22c36 0 50-32 50-73 0-42-14-75-50-75-39 0-46 34-46 75s6 73 46 73" id="B"/><path d="M100-194c63 0 86 42 84 106H49c0 40 14 67 53 68 26 1 43-12 49-29l28 8c-11 28-37 45-77 45C44 4 14-33 15-96c1-61 26-98 85-98zm52 81c6-60-76-77-97-28-3 7-6 17-6 28h103" id="C"/><g id="a"><use transform="matrix(0.06172839506172839,0,0,0.06172839506172839,0,0)" xlink:href="#w"/><use transform="matrix(0.06172839506172839,0,0,0.06172839506172839,14.814814814814813,0)" xlink:href="#x"/><use transform="matrix(0.06172839506172839,0,0,0.06172839506172839,20.98765432098765,0)" xlink:href="#y"/><use transform="matrix(0.06172839506172839,0,0,0.06172839506172839,33.33333333333333,0)" xlink:href="#z"/><use transform="matrix(0.06172839506172839,0,0,0.06172839506172839,40.679012345679006,0)" xlink:href="#A"/><use transform="matrix(0.06172839506172839,0,0,0.06172839506172839,53.02469135802468,0)" xlink:href="#B"/><use transform="matrix(0.06172839506172839,0,0,0.06172839506172839,65.37037037037037,0)" xlink:href="#C"/></g><path d="M205 0l-28-72H64L36 0H1l101-248h38L239 0h-34zm-38-99l-47-123c-12 45-31 82-46 123h93" id="D"/><path d="M30-248c87 1 191-15 191 75 0 78-77 80-158 76V0H30v-248zm33 125c57 0 124 11 124-50 0-59-68-47-124-48v98" id="E"/><path d="M33 0v-248h34V0H33" id="F"/><g id="b"><use transform="matrix(0.06172839506172839,0,0,0.06172839506172839,0,0)" xlink:href="#D"/><use transform="matrix(0.06172839506172839,0,0,0.06172839506172839,14.814814814814813,0)" xlink:href="#E"/><use transform="matrix(0.06172839506172839,0,0,0.06172839506172839,29.629629629629626,0)" xlink:href="#F"/></g><path fill="#3a414a" d="M160-131c35 5 61 23 61 61C221 17 115-2 30 0v-248c76 3 177-17 177 60 0 33-19 50-47 57zm-97-11c50-1 110 9 110-42 0-47-63-36-110-37v79zm0 115c55-2 124 14 124-45 0-56-70-42-124-44v89" id="G"/><path fill="#3a414a" d="M84 4C-5 8 30-112 23-190h32v120c0 31 7 50 39 49 72-2 45-101 50-169h31l1 190h-30c-1-10 1-25-2-33-11 22-28 36-60 37" id="H"/><path fill="#3a414a" d="M96-169c-40 0-48 33-48 73s9 75 48 75c24 0 41-14 43-38l32 2c-6 37-31 61-74 61-59 0-76-41-82-99-10-93 101-131 147-64 4 7 5 14 7 22l-32 3c-4-21-16-35-41-35" id="I"/><path fill="#3a414a" d="M143 0L79-87 56-68V0H24v-261h32v163l83-92h37l-77 82L181 0h-38" id="J"/><path fill="#3a414a" d="M100-194c63 0 86 42 84 106H49c0 40 14 67 53 68 26 1 43-12 49-29l28 8c-11 28-37 45-77 45C44 4 14-33 15-96c1-61 26-98 85-98zm52 81c6-60-76-77-97-28-3 7-6 17-6 28h103" id="K"/><path fill="#3a414a" d="M59-47c-2 24 18 29 38 22v24C64 9 27 4 27-40v-127H5v-23h24l9-43h21v43h35v23H59v120" id="L"/><path fill="#3a414a" d="M135-143c-3-34-86-38-87 0 15 53 115 12 119 90S17 21 10-45l28-5c4 36 97 45 98 0-10-56-113-15-118-90-4-57 82-63 122-42 12 7 21 19 24 35" id="M"/><g id="c"><use transform="matrix(0.06172839506172839,0,0,0.06172839506172839,0,0)" xlink:href="#G"/><use transform="matrix(0.06172839506172839,0,0,0.06172839506172839,14.814814814814813,0)" xlink:href="#H"/><use transform="matrix(0.06172839506172839,0,0,0.06172839506172839,27.160493827160494,0)" xlink:href="#I"/><use transform="matrix(0.06172839506172839,0,0,0.06172839506172839,38.27160493827161,0)" xlink:href="#J"/><use transform="matrix(0.06172839506172839,0,0,0.06172839506172839,49.38271604938272,0)" xlink:href="#K"/><use transform="matrix(0.06172839506172839,0,0,0.06172839506172839,61.7283950617284,0)" xlink:href="#L"/><use transform="matrix(0.06172839506172839,0,0,0.06172839506172839,67.90123456790124,0)" xlink:href="#M"/></g><path fill="#3a414a" d="M63-220v92h138v28H63V0H30v-248h175v28H63" id="N"/><path fill="#3a414a" d="M100-194c62-1 85 37 85 99 1 63-27 99-86 99S16-35 15-95c0-66 28-99 85-99zM99-20c44 1 53-31 53-75 0-43-8-75-51-75s-53 32-53 75 10 74 51 75" id="O"/><path fill="#3a414a" d="M24 0v-261h32V0H24" id="P"/><path fill="#3a414a" d="M85-194c31 0 48 13 60 33l-1-100h32l1 261h-30c-2-10 0-23-3-31C134-8 116 4 85 4 32 4 16-35 15-94c0-66 23-100 70-100zm9 24c-40 0-46 34-46 75 0 40 6 74 45 74 42 0 51-32 51-76 0-42-9-74-50-73" id="Q"/><path fill="#3a414a" d="M114-163C36-179 61-72 57 0H25l-1-190h30c1 12-1 29 2 39 6-27 23-49 58-41v29" id="R"/><g id="d"><use transform="matrix(0.06172839506172839,0,0,0.06172839506172839,0,0)" xlink:href="#N"/><use transform="matrix(0.06172839506172839,0,0,0.06172839506172839,13.518518518518517,0)" xlink:href="#O"/><use transform="matrix(0.06172839506172839,0,0,0.06172839506172839,25.864197530864196,0)" xlink:href="#P"/><use transform="matrix(0.06172839506172839,0,0,0.06172839506172839,30.74074074074074,0)" xlink:href="#Q"/><use transform="matrix(0.06172839506172839,0,0,0.06172839506172839,43.08641975308642,0)" xlink:href="#K"/><use transform="matrix(0.06172839506172839,0,0,0.06172839506172839,55.432098765432094,0)" xlink:href="#R"/><use transform="matrix(0.06172839506172839,0,0,0.06172839506172839,62.77777777777777,0)" xlink:href="#M"/></g><path fill="#3a414a" d="M24-231v-30h32v30H24zM24 0v-190h32V0H24" id="S"/><g id="e"><use transform="matrix(0.06172839506172839,0,0,0.06172839506172839,0,0)" xlink:href="#N"/><use transform="matrix(0.06172839506172839,0,0,0.06172839506172839,13.518518518518517,0)" xlink:href="#S"/><use transform="matrix(0.06172839506172839,0,0,0.06172839506172839,18.39506172839506,0)" xlink:href="#P"/><use transform="matrix(0.06172839506172839,0,0,0.06172839506172839,23.2716049382716,0)" xlink:href="#K"/><use transform="matrix(0.06172839506172839,0,0,0.06172839506172839,35.61728395061728,0)" xlink:href="#M"/></g><path fill="#008a0e" d="M0 4l72-265h28L28 4H0" id="T"/><path fill="#008a0e" d="M115-194c53 0 69 39 70 98 0 66-23 100-70 100C84 3 66-7 56-30L54 0H23l1-261h32v101c10-23 28-34 59-34zm-8 174c40 0 45-34 45-75 0-40-5-75-45-74-42 0-51 32-51 76 0 43 10 73 51 73" id="U"/><path fill="#008a0e" d="M84 4C-5 8 30-112 23-190h32v120c0 31 7 50 39 49 72-2 45-101 50-169h31l1 190h-30c-1-10 1-25-2-33-11 22-28 36-60 37" id="V"/><path fill="#008a0e" d="M96-169c-40 0-48 33-48 73s9 75 48 75c24 0 41-14 43-38l32 2c-6 37-31 61-74 61-59 0-76-41-82-99-10-93 101-131 147-64 4 7 5 14 7 22l-32 3c-4-21-16-35-41-35" id="W"/><path fill="#008a0e" d="M143 0L79-87 56-68V0H24v-261h32v163l83-92h37l-77 82L181 0h-38" id="X"/><path fill="#008a0e" d="M100-194c63 0 86 42 84 106H49c0 40 14 67 53 68 26 1 43-12 49-29l28 8c-11 28-37 45-77 45C44 4 14-33 15-96c1-61 26-98 85-98zm52 81c6-60-76-77-97-28-3 7-6 17-6 28h103" id="Y"/><path fill="#008a0e" d="M59-47c-2 24 18 29 38 22v24C64 9 27 4 27-40v-127H5v-23h24l9-43h21v43h35v23H59v120" id="Z"/><path fill="#008a0e" d="M135-143c-3-34-86-38-87 0 15 53 115 12 119 90S17 21 10-45l28-5c4 36 97 45 98 0-10-56-113-15-118-90-4-57 82-63 122-42 12 7 21 19 24 35" id="aa"/><g id="f"><use transform="matrix(0.055555555555555546,0,0,0.055555555555555546,0,0)" xlink:href="#T"/><use transform="matrix(0.055555555555555546,0,0,0.055555555555555546,5.5555555555555545,0)" xlink:href="#U"/><use transform="matrix(0.055555555555555546,0,0,0.055555555555555546,16.666666666666664,0)" xlink:href="#V"/><use transform="matrix(0.055555555555555546,0,0,0.055555555555555546,27.77777777777777,0)" xlink:href="#W"/><use transform="matrix(0.055555555555555546,0,0,0.055555555555555546,37.77777777777777,0)" xlink:href="#X"/><use transform="matrix(0.055555555555555546,0,0,0.055555555555555546,47.77777777777777,0)" xlink:href="#Y"/><use transform="matrix(0.055555555555555546,0,0,0.055555555555555546,58.88888888888888,0)" xlink:href="#Z"/><use transform="matrix(0.055555555555555546,0,0,0.055555555555555546,64.44444444444443,0)" xlink:href="#aa"/><use transform="matrix(0.055555555555555546,0,0,0.055555555555555546,74.44444444444443,0)" xlink:href="#T"/></g><path fill="#fff" d="M30-248c87 1 191-15 191 75 0 78-77 80-158 76V0H30v-248zm33 125c57 0 124 11 124-50 0-59-68-47-124-48v98" id="ab"/><path fill="#fff" d="M140-251c81 0 123 46 123 126C263-46 219 4 140 4 59 4 17-45 17-125s42-126 123-126zm0 227c63 0 89-41 89-101s-29-99-89-99c-61 0-89 39-89 99S79-25 140-24" id="ac"/><path fill="#fff" d="M185-189c-5-48-123-54-124 2 14 75 158 14 163 119 3 78-121 87-175 55-17-10-28-26-33-46l33-7c5 56 141 63 141-1 0-78-155-14-162-118-5-82 145-84 179-34 5 7 8 16 11 25" id="ad"/><path fill="#fff" d="M127-220V0H93v-220H8v-28h204v28h-85" id="ae"/><g id="g"><use transform="matrix(0.049382716049382706,0,0,0.049382716049382706,0,0)" xlink:href="#ab"/><use transform="matrix(0.049382716049382706,0,0,0.049382716049382706,11.85185185185185,0)" xlink:href="#ac"/><use transform="matrix(0.049382716049382706,0,0,0.049382716049382706,25.679012345679006,0)" xlink:href="#ad"/><use transform="matrix(0.049382716049382706,0,0,0.049382716049382706,37.53086419753085,0)" xlink:href="#ae"/></g><path fill="#fff" d="M143 4C61 4 22-44 18-125c-5-107 100-154 193-111 17 8 29 25 37 43l-32 9c-13-25-37-40-76-40-61 0-88 39-88 99 0 61 29 100 91 101 35 0 62-11 79-27v-45h-74v-28h105v86C228-13 192 4 143 4" id="af"/><path fill="#fff" d="M30 0v-248h187v28H63v79h144v27H63v87h162V0H30" id="ag"/><g id="h"><use transform="matrix(0.049382716049382706,0,0,0.049382716049382706,0,0)" xlink:href="#af"/><use transform="matrix(0.049382716049382706,0,0,0.049382716049382706,13.827160493827158,0)" xlink:href="#ag"/><use transform="matrix(0.049382716049382706,0,0,0.049382716049382706,25.679012345679006,0)" xlink:href="#ae"/></g><path fill="#008a0e" d="M39-94c74 12-11 154 75 146v23c-44 4-70-10-70-52C44-23 55-84 6-82v-22c81 4-7-162 84-157h24v23c-82-15-2 131-75 144" id="ah"/><path fill="#008a0e" d="M76-40C78 24 84 88 6 75V52C86 64 9-79 80-94c-40-6-34-59-34-106 1-29-11-41-40-38v-23c44-4 70 10 70 52 0 47-12 108 38 105v22c-26 1-39 14-38 42" id="ai"/><g id="i"><use transform="matrix(0.055555555555555546,0,0,0.055555555555555546,0,0)" xlink:href="#T"/><use transform="matrix(0.055555555555555546,0,0,0.055555555555555546,5.5555555555555545,0)" xlink:href="#U"/><use transform="matrix(0.055555555555555546,0,0,0.055555555555555546,16.666666666666664,0)" xlink:href="#V"/><use transform="matrix(0.055555555555555546,0,0,0.055555555555555546,27.77777777777777,0)" xlink:href="#W"/><use transform="matrix(0.055555555555555546,0,0,0.055555555555555546,37.77777777777777,0)" xlink:href="#X"/><use transform="matrix(0.055555555555555546,0,0,0.055555555555555546,47.77777777777777,0)" xlink:href="#Y"/><use transform="matrix(0.055555555555555546,0,0,0.055555555555555546,58.88888888888888,0)" xlink:href="#Z"/><use transform="matrix(0.055555555555555546,0,0,0.055555555555555546,64.44444444444443,0)" xlink:href="#aa"/><use transform="matrix(0.055555555555555546,0,0,0.055555555555555546,74.44444444444443,0)" xlink:href="#T"/><use transform="matrix(0.055555555555555546,0,0,0.055555555555555546,79.99999999999999,0)" xlink:href="#ah"/><use transform="matrix(0.055555555555555546,0,0,0.055555555555555546,86.66666666666666,0)" xlink:href="#U"/><use transform="matrix(0.055555555555555546,0,0,0.055555555555555546,97.77777777777777,0)" xlink:href="#V"/><use transform="matrix(0.055555555555555546,0,0,0.055555555555555546,108.88888888888889,0)" xlink:href="#W"/><use transform="matrix(0.055555555555555546,0,0,0.055555555555555546,118.88888888888889,0)" xlink:href="#X"/><use transform="matrix(0.055555555555555546,0,0,0.055555555555555546,128.88888888888889,0)" xlink:href="#Y"/><use transform="matrix(0.055555555555555546,0,0,0.055555555555555546,140,0)" xlink:href="#Z"/><use transform="matrix(0.055555555555555546,0,0,0.055555555555555546,145.55555555555554,0)" xlink:href="#ai"/><use transform="matrix(0.055555555555555546,0,0,0.055555555555555546,152.2222222222222,0)" xlink:href="#T"/></g><path fill="#fff" d="M30-248c118-7 216 8 213 122C240-48 200 0 122 0H30v-248zM63-27c89 8 146-16 146-99s-60-101-146-95v194" id="aj"/><path fill="#fff" d="M30 0v-248h33v221h125V0H30" id="ak"/><g id="j"><use transform="matrix(0.049382716049382706,0,0,0.049382716049382706,0,0)" xlink:href="#aj"/><use transform="matrix(0.049382716049382706,0,0,0.049382716049382706,12.790123456790122,0)" xlink:href="#ag"/><use transform="matrix(0.049382716049382706,0,0,0.049382716049382706,24.64197530864197,0)" xlink:href="#ak"/><use transform="matrix(0.049382716049382706,0,0,0.049382716049382706,34.51851851851851,0)" xlink:href="#ag"/><use transform="matrix(0.049382716049382706,0,0,0.049382716049382706,46.37037037037036,0)" xlink:href="#ae"/><use transform="matrix(0.049382716049382706,0,0,0.049382716049382706,57.185185185185176,0)" xlink:href="#ag"/></g><path fill="#008a0e" d="M101-234c-31-9-42 10-38 44h38v23H63V0H32v-167H5v-23h27c-7-52 17-82 69-68v24" id="al"/><path fill="#008a0e" d="M100-194c62-1 85 37 85 99 1 63-27 99-86 99S16-35 15-95c0-66 28-99 85-99zM99-20c44 1 53-31 53-75 0-43-8-75-51-75s-53 32-53 75 10 74 51 75" id="am"/><path fill="#008a0e" d="M24 0v-261h32V0H24" id="an"/><path fill="#008a0e" d="M85-194c31 0 48 13 60 33l-1-100h32l1 261h-30c-2-10 0-23-3-31C134-8 116 4 85 4 32 4 16-35 15-94c0-66 23-100 70-100zm9 24c-40 0-46 34-46 75 0 40 6 74 45 74 42 0 51-32 51-76 0-42-9-74-50-73" id="ao"/><path fill="#008a0e" d="M114-163C36-179 61-72 57 0H25l-1-190h30c1 12-1 29 2 39 6-27 23-49 58-41v29" id="ap"/><path fill="#008a0e" d="M115-194c55 1 70 41 70 98S169 2 115 4C84 4 66-9 55-30l1 105H24l-1-265h31l2 30c10-21 28-34 59-34zm-8 174c40 0 45-34 45-75s-6-73-45-74c-42 0-51 32-51 76 0 43 10 73 51 73" id="aq"/><path fill="#008a0e" d="M141-36C126-15 110 5 73 4 37 3 15-17 15-53c-1-64 63-63 125-63 3-35-9-54-41-54-24 1-41 7-42 31l-33-3c5-37 33-52 76-52 45 0 72 20 72 64v82c-1 20 7 32 28 27v20c-31 9-61-2-59-35zM48-53c0 20 12 33 32 33 41-3 63-29 60-74-43 2-92-5-92 41" id="ar"/><path fill="#008a0e" d="M106-169C34-169 62-67 57 0H25v-261h32l-1 103c12-21 28-36 61-36 89 0 53 116 60 194h-32v-121c2-32-8-49-39-48" id="as"/><g id="k"><use transform="matrix(0.055555555555555546,0,0,0.055555555555555546,0,0)" xlink:href="#T"/><use transform="matrix(0.055555555555555546,0,0,0.055555555555555546,5.5555555555555545,0)" xlink:href="#al"/><use transform="matrix(0.055555555555555546,0,0,0.055555555555555546,11.111111111111109,0)" xlink:href="#am"/><use transform="matrix(0.055555555555555546,0,0,0.055555555555555546,22.222222222222218,0)" xlink:href="#an"/><use transform="matrix(0.055555555555555546,0,0,0.055555555555555546,26.611111111111107,0)" xlink:href="#ao"/><use transform="matrix(0.055555555555555546,0,0,0.055555555555555546,37.722222222222214,0)" xlink:href="#Y"/><use transform="matrix(0.055555555555555546,0,0,0.055555555555555546,48.83333333333332,0)" xlink:href="#ap"/><use transform="matrix(0.055555555555555546,0,0,0.055555555555555546,55.44444444444443,0)" xlink:href="#aa"/><use transform="matrix(0.055555555555555546,0,0,0.055555555555555546,65.44444444444443,0)" xlink:href="#T"/><use transform="matrix(0.055555555555555546,0,0,0.055555555555555546,70.99999999999999,0)" xlink:href="#ah"/><use transform="matrix(0.055555555555555546,0,0,0.055555555555555546,77.66666666666666,0)" xlink:href="#U"/><use transform="matrix(0.055555555555555546,0,0,0.055555555555555546,88.77777777777777,0)" xlink:href="#V"/><use transform="matrix(0.055555555555555546,0,0,0.055555555555555546,99.88888888888889,0)" xlink:href="#W"/><use transform="matrix(0.055555555555555546,0,0,0.055555555555555546,109.88888888888889,0)" xlink:href="#X"/><use transform="matrix(0.055555555555555546,0,0,0.055555555555555546,119.88888888888889,0)" xlink:href="#Y"/><use transform="matrix(0.055555555555555546,0,0,0.055555555555555546,131,0)" xlink:href="#Z"/><use transform="matrix(0.055555555555555546,0,0,0.055555555555555546,136.55555555555554,0)" xlink:href="#ai"/><use transform="matrix(0.055555555555555546,0,0,0.055555555555555546,143.2222222222222,0)" xlink:href="#T"/><use transform="matrix(0.055555555555555546,0,0,0.055555555555555546,148.77777777777774,0)" xlink:href="#ah"/><use transform="matrix(0.055555555555555546,0,0,0.055555555555555546,155.4444444444444,0)" xlink:href="#aq"/><use transform="matrix(0.055555555555555546,0,0,0.055555555555555546,166.55555555555551,0)" xlink:href="#ar"/><use transform="matrix(0.055555555555555546,0,0,0.055555555555555546,177.66666666666663,0)" xlink:href="#Z"/><use transform="matrix(0.055555555555555546,0,0,0.055555555555555546,183.22222222222217,0)" xlink:href="#as"/><use transform="matrix(0.055555555555555546,0,0,0.055555555555555546,194.3333333333333,0)" xlink:href="#ai"/><use transform="matrix(0.055555555555555546,0,0,0.055555555555555546,200.99999999999994,0)" xlink:href="#T"/></g><g id="l"><use transform="matrix(0.055555555555555546,0,0,0.055555555555555546,0,0)" xlink:href="#T"/><use transform="matrix(0.055555555555555546,0,0,0.055555555555555546,5.5555555555555545,0)" xlink:href="#al"/><use transform="matrix(0.055555555555555546,0,0,0.055555555555555546,11.111111111111109,0)" xlink:href="#am"/><use transform="matrix(0.055555555555555546,0,0,0.055555555555555546,22.222222222222218,0)" xlink:href="#an"/><use transform="matrix(0.055555555555555546,0,0,0.055555555555555546,26.611111111111107,0)" xlink:href="#ao"/><use transform="matrix(0.055555555555555546,0,0,0.055555555555555546,37.722222222222214,0)" xlink:href="#Y"/><use transform="matrix(0.055555555555555546,0,0,0.055555555555555546,48.83333333333332,0)" xlink:href="#ap"/><use transform="matrix(0.055555555555555546,0,0,0.055555555555555546,55.44444444444443,0)" xlink:href="#aa"/><use transform="matrix(0.055555555555555546,0,0,0.055555555555555546,65.44444444444443,0)" xlink:href="#T"/><use transform="matrix(0.055555555555555546,0,0,0.055555555555555546,70.99999999999999,0)" xlink:href="#ah"/><use transform="matrix(0.055555555555555546,0,0,0.055555555555555546,77.66666666666666,0)" xlink:href="#U"/><use transform="matrix(0.055555555555555546,0,0,0.055555555555555546,88.77777777777777,0)" xlink:href="#V"/><use transform="matrix(0.055555555555555546,0,0,0.055555555555555546,99.88888888888889,0)" xlink:href="#W"/><use transform="matrix(0.055555555555555546,0,0,0.055555555555555546,109.88888888888889,0)" xlink:href="#X"/><use transform="matrix(0.055555555555555546,0,0,0.055555555555555546,119.88888888888889,0)" xlink:href="#Y"/><use transform="matrix(0.055555555555555546,0,0,0.055555555555555546,131,0)" xlink:href="#Z"/><use transform="matrix(0.055555555555555546,0,0,0.055555555555555546,136.55555555555554,0)" xlink:href="#ai"/><use transform="matrix(0.055555555555555546,0,0,0.055555555555555546,143.2222222222222,0)" xlink:href="#T"/></g><path fill="#008a0e" d="M24-231v-30h32v30H24zM24 0v-190h32V0H24" id="at"/><g id="m"><use transform="matrix(0.055555555555555546,0,0,0.055555555555555546,0,0)" xlink:href="#T"/><use transform="matrix(0.055555555555555546,0,0,0.055555555555555546,5.5555555555555545,0)" xlink:href="#al"/><use transform="matrix(0.055555555555555546,0,0,0.055555555555555546,11.111111111111109,0)" xlink:href="#at"/><use transform="matrix(0.055555555555555546,0,0,0.055555555555555546,15.499999999999996,0)" xlink:href="#an"/><use transform="matrix(0.055555555555555546,0,0,0.055555555555555546,19.888888888888886,0)" xlink:href="#Y"/><use transform="matrix(0.055555555555555546,0,0,0.055555555555555546,30.999999999999993,0)" xlink:href="#aa"/><use transform="matrix(0.055555555555555546,0,0,0.055555555555555546,40.99999999999999,0)" xlink:href="#T"/><use transform="matrix(0.055555555555555546,0,0,0.055555555555555546,46.55555555555555,0)" xlink:href="#ah"/><use transform="matrix(0.055555555555555546,0,0,0.055555555555555546,53.222222222222214,0)" xlink:href="#U"/><use transform="matrix(0.055555555555555546,0,0,0.055555555555555546,64.33333333333333,0)" xlink:href="#V"/><use transform="matrix(0.055555555555555546,0,0,0.055555555555555546,75.44444444444444,0)" xlink:href="#W"/><use transform="matrix(0.055555555555555546,0,0,0.055555555555555546,85.44444444444444,0)" xlink:href="#X"/><use transform="matrix(0.055555555555555546,0,0,0.055555555555555546,95.44444444444444,0)" xlink:href="#Y"/><use transform="matrix(0.055555555555555546,0,0,0.055555555555555546,106.55555555555556,0)" xlink:href="#Z"/><use transform="matrix(0.055555555555555546,0,0,0.055555555555555546,112.11111111111111,0)" xlink:href="#ai"/><use transform="matrix(0.055555555555555546,0,0,0.055555555555555546,118.77777777777779,0)" xlink:href="#T"/><use transform="matrix(0.055555555555555546,0,0,0.055555555555555546,124.33333333333334,0)" xlink:href="#ah"/><use transform="matrix(0.055555555555555546,0,0,0.055555555555555546,131,0)" xlink:href="#aq"/><use transform="matrix(0.055555555555555546,0,0,0.055555555555555546,142.11111111111111,0)" xlink:href="#ar"/><use transform="matrix(0.055555555555555546,0,0,0.055555555555555546,153.22222222222223,0)" xlink:href="#Z"/><use transform="matrix(0.055555555555555546,0,0,0.055555555555555546,158.77777777777777,0)" xlink:href="#as"/><use transform="matrix(0.055555555555555546,0,0,0.055555555555555546,169.88888888888889,0)" xlink:href="#ai"/><use transform="matrix(0.055555555555555546,0,0,0.055555555555555546,176.55555555555554,0)" xlink:href="#T"/></g><g id="n"><use transform="matrix(0.055555555555555546,0,0,0.055555555555555546,0,0)" xlink:href="#T"/><use transform="matrix(0.055555555555555546,0,0,0.055555555555555546,5.5555555555555545,0)" xlink:href="#al"/><use transform="matrix(0.055555555555555546,0,0,0.055555555555555546,11.111111111111109,0)" xlink:href="#at"/><use transform="matrix(0.055555555555555546,0,0,0.055555555555555546,15.499999999999996,0)" xlink:href="#an"/><use transform="matrix(0.055555555555555546,0,0,0.055555555555555546,19.888888888888886,0)" xlink:href="#Y"/><use transform="matrix(0.055555555555555546,0,0,0.055555555555555546,30.999999999999993,0)" xlink:href="#aa"/><use transform="matrix(0.055555555555555546,0,0,0.055555555555555546,40.99999999999999,0)" xlink:href="#T"/><use transform="matrix(0.055555555555555546,0,0,0.055555555555555546,46.55555555555555,0)" xlink:href="#ah"/><use transform="matrix(0.055555555555555546,0,0,0.055555555555555546,53.222222222222214,0)" xlink:href="#U"/><use transform="matrix(0.055555555555555546,0,0,0.055555555555555546,64.33333333333333,0)" xlink:href="#V"/><use transform="matrix(0.055555555555555546,0,0,0.055555555555555546,75.44444444444444,0)" xlink:href="#W"/><use transform="matrix(0.055555555555555546,0,0,0.055555555555555546,85.44444444444444,0)" xlink:href="#X"/><use transform="matrix(0.055555555555555546,0,0,0.055555555555555546,95.44444444444444,0)" xlink:href="#Y"/><use transform="matrix(0.055555555555555546,0,0,0.055555555555555546,106.55555555555556,0)" xlink:href="#Z"/><use transform="matrix(0.055555555555555546,0,0,0.055555555555555546,112.11111111111111,0)" xlink:href="#ai"/><use transform="matrix(0.055555555555555546,0,0,0.055555555555555546,118.77777777777779,0)" xlink:href="#T"/></g><path fill="#008a0e" d="M206 0h-36l-40-164L89 0H53L-1-190h32L70-26l43-164h34l41 164 42-164h31" id="au"/><path fill="#008a0e" d="M117-194c89-4 53 116 60 194h-32v-121c0-31-8-49-39-48C34-167 62-67 57 0H25l-1-190h30c1 10-1 24 2 32 11-22 29-35 61-36" id="av"/><g id="o"><use transform="matrix(0.055555555555555546,0,0,0.055555555555555546,0,0)" xlink:href="#T"/><use transform="matrix(0.055555555555555546,0,0,0.055555555555555546,5.5555555555555545,0)" xlink:href="#al"/><use transform="matrix(0.055555555555555546,0,0,0.055555555555555546,11.111111111111109,0)" xlink:href="#at"/><use transform="matrix(0.055555555555555546,0,0,0.055555555555555546,15.499999999999996,0)" xlink:href="#an"/><use transform="matrix(0.055555555555555546,0,0,0.055555555555555546,19.888888888888886,0)" xlink:href="#Y"/><use transform="matrix(0.055555555555555546,0,0,0.055555555555555546,30.999999999999993,0)" xlink:href="#aa"/><use transform="matrix(0.055555555555555546,0,0,0.055555555555555546,40.99999999999999,0)" xlink:href="#T"/><use transform="matrix(0.055555555555555546,0,0,0.055555555555555546,46.55555555555555,0)" xlink:href="#ah"/><use transform="matrix(0.055555555555555546,0,0,0.055555555555555546,53.222222222222214,0)" xlink:href="#U"/><use transform="matrix(0.055555555555555546,0,0,0.055555555555555546,64.33333333333333,0)" xlink:href="#V"/><use transform="matrix(0.055555555555555546,0,0,0.055555555555555546,75.44444444444444,0)" xlink:href="#W"/><use transform="matrix(0.055555555555555546,0,0,0.055555555555555546,85.44444444444444,0)" xlink:href="#X"/><use transform="matrix(0.055555555555555546,0,0,0.055555555555555546,95.44444444444444,0)" xlink:href="#Y"/><use transform="matrix(0.055555555555555546,0,0,0.055555555555555546,106.55555555555556,0)" xlink:href="#Z"/><use transform="matrix(0.055555555555555546,0,0,0.055555555555555546,112.11111111111111,0)" xlink:href="#ai"/><use transform="matrix(0.055555555555555546,0,0,0.055555555555555546,118.77777777777779,0)" xlink:href="#T"/><use transform="matrix(0.055555555555555546,0,0,0.055555555555555546,124.33333333333334,0)" xlink:href="#ah"/><use transform="matrix(0.055555555555555546,0,0,0.055555555555555546,131,0)" xlink:href="#aq"/><use transform="matrix(0.055555555555555546,0,0,0.055555555555555546,142.11111111111111,0)" xlink:href="#ar"/><use transform="matrix(0.055555555555555546,0,0,0.055555555555555546,153.22222222222223,0)" xlink:href="#Z"/><use transform="matrix(0.055555555555555546,0,0,0.055555555555555546,158.77777777777777,0)" xlink:href="#as"/><use transform="matrix(0.055555555555555546,0,0,0.055555555555555546,169.88888888888889,0)" xlink:href="#ai"/><use transform="matrix(0.055555555555555546,0,0,0.055555555555555546,176.55555555555554,0)" xlink:href="#T"/><use transform="matrix(0.055555555555555546,0,0,0.055555555555555546,182.1111111111111,0)" xlink:href="#ao"/><use transform="matrix(0.055555555555555546,0,0,0.055555555555555546,193.2222222222222,0)" xlink:href="#am"/><use transform="matrix(0.055555555555555546,0,0,0.055555555555555546,204.33333333333331,0)" xlink:href="#au"/><use transform="matrix(0.055555555555555546,0,0,0.055555555555555546,218.7222222222222,0)" xlink:href="#av"/><use transform="matrix(0.055555555555555546,0,0,0.055555555555555546,229.8333333333333,0)" xlink:href="#an"/><use transform="matrix(0.055555555555555546,0,0,0.055555555555555546,234.22222222222217,0)" xlink:href="#am"/><use transform="matrix(0.055555555555555546,0,0,0.055555555555555546,245.33333333333334,0)" xlink:href="#ar"/><use transform="matrix(0.055555555555555546,0,0,0.055555555555555546,256.4444444444444,0)" xlink:href="#ao"/></g><path fill="#3a414a" d="M232-93c-1 65-40 97-104 97C67 4 28-28 28-90v-158h33c8 89-33 224 67 224 102 0 64-133 71-224h33v155" id="aw"/><g id="p"><use transform="matrix(0.06172839506172839,0,0,0.06172839506172839,0,0)" xlink:href="#aw"/><use transform="matrix(0.06172839506172839,0,0,0.06172839506172839,15.987654320987653,0)" xlink:href="#M"/><use transform="matrix(0.06172839506172839,0,0,0.06172839506172839,27.098765432098766,0)" xlink:href="#K"/><use transform="matrix(0.06172839506172839,0,0,0.06172839506172839,39.44444444444444,0)" xlink:href="#R"/><use transform="matrix(0.06172839506172839,0,0,0.06172839506172839,46.79012345679012,0)" xlink:href="#M"/></g><path fill="#008a0e" d="M-5 72V49h209v23H-5" id="ax"/><g id="q"><use transform="matrix(0.055555555555555546,0,0,0.055555555555555546,0,0)" xlink:href="#T"/><use transform="matrix(0.055555555555555546,0,0,0.055555555555555546,5.5555555555555545,0)" xlink:href="#V"/><use transform="matrix(0.055555555555555546,0,0,0.055555555555555546,16.666666666666664,0)" xlink:href="#aa"/><use transform="matrix(0.055555555555555546,0,0,0.055555555555555546,26.666666666666664,0)" xlink:href="#Y"/><use transform="matrix(0.055555555555555546,0,0,0.055555555555555546,37.77777777777777,0)" xlink:href="#ap"/><use transform="matrix(0.055555555555555546,0,0,0.055555555555555546,44.38888888888888,0)" xlink:href="#aa"/><use transform="matrix(0.055555555555555546,0,0,0.055555555555555546,54.38888888888888,0)" xlink:href="#T"/><use transform="matrix(0.055555555555555546,0,0,0.055555555555555546,59.944444444444436,0)" xlink:href="#ah"/><use transform="matrix(0.055555555555555546,0,0,0.055555555555555546,66.6111111111111,0)" xlink:href="#V"/><use transform="matrix(0.055555555555555546,0,0,0.055555555555555546,77.72222222222221,0)" xlink:href="#aa"/><use transform="matrix(0.055555555555555546,0,0,0.055555555555555546,87.72222222222221,0)" xlink:href="#Y"/><use transform="matrix(0.055555555555555546,0,0,0.055555555555555546,98.83333333333333,0)" xlink:href="#ap"/><use transform="matrix(0.055555555555555546,0,0,0.055555555555555546,105.44444444444444,0)" xlink:href="#ax"/><use transform="matrix(0.055555555555555546,0,0,0.055555555555555546,116.55555555555556,0)" xlink:href="#at"/><use transform="matrix(0.055555555555555546,0,0,0.055555555555555546,120.94444444444444,0)" xlink:href="#ao"/><use transform="matrix(0.055555555555555546,0,0,0.055555555555555546,132.05555555555554,0)" xlink:href="#ai"/></g><g id="r"><use transform="matrix(0.049382716049382706,0,0,0.049382716049382706,0,0)" xlink:href="#af"/><use transform="matrix(0.049382716049382706,0,0,0.049382716049382706,13.827160493827158,0)" xlink:href="#ag"/><use transform="matrix(0.049382716049382706,0,0,0.049382716049382706,25.679012345679006,0)" xlink:href="#ae"/></g><g id="s"><use transform="matrix(0.049382716049382706,0,0,0.049382716049382706,0,0)" xlink:href="#aj"/><use transform="matrix(0.049382716049382706,0,0,0.049382716049382706,12.790123456790122,0)" xlink:href="#ag"/><use transform="matrix(0.049382716049382706,0,0,0.049382716049382706,24.64197530864197,0)" xlink:href="#ak"/><use transform="matrix(0.049382716049382706,0,0,0.049382716049382706,34.51851851851851,0)" xlink:href="#ag"/><use transform="matrix(0.049382716049382706,0,0,0.049382716049382706,46.37037037037036,0)" xlink:href="#ae"/><use transform="matrix(0.049382716049382706,0,0,0.049382716049382706,57.185185185185176,0)" xlink:href="#ag"/></g><g id="t"><use transform="matrix(0.055555555555555546,0,0,0.055555555555555546,0,0)" xlink:href="#T"/><use transform="matrix(0.055555555555555546,0,0,0.055555555555555546,5.5555555555555545,0)" xlink:href="#V"/><use transform="matrix(0.055555555555555546,0,0,0.055555555555555546,16.666666666666664,0)" xlink:href="#aa"/><use transform="matrix(0.055555555555555546,0,0,0.055555555555555546,26.666666666666664,0)" xlink:href="#Y"/><use transform="matrix(0.055555555555555546,0,0,0.055555555555555546,37.77777777777777,0)" xlink:href="#ap"/><use transform="matrix(0.055555555555555546,0,0,0.055555555555555546,44.38888888888888,0)" xlink:href="#aa"/><use transform="matrix(0.055555555555555546,0,0,0.055555555555555546,54.38888888888888,0)" xlink:href="#T"/></g><g id="u"><use transform="matrix(0.049382716049382706,0,0,0.049382716049382706,0,0)" xlink:href="#ab"/><use transform="matrix(0.049382716049382706,0,0,0.049382716049382706,11.85185185185185,0)" xlink:href="#ac"/><use transform="matrix(0.049382716049382706,0,0,0.049382716049382706,25.679012345679006,0)" xlink:href="#ad"/><use transform="matrix(0.049382716049382706,0,0,0.049382716049382706,37.53086419753085,0)" xlink:href="#ae"/></g><path d="M232-93c-1 65-40 97-104 97C67 4 28-28 28-90v-158h33c8 89-33 224 67 224 102 0 64-133 71-224h33v155" id="ay"/><path d="M127-220V0H93v-220H8v-28h204v28h-85" id="az"/><g id="v"><use transform="matrix(0.049382716049382706,0,0,0.049382716049382706,0,0)" xlink:href="#E"/><use transform="matrix(0.049382716049382706,0,0,0.049382716049382706,11.85185185185185,0)" xlink:href="#ay"/><use transform="matrix(0.049382716049382706,0,0,0.049382716049382706,24.64197530864197,0)" xlink:href="#az"/></g></defs></g></svg>